<svg xmlns="http://www.w3.org/2000/svg" width="24" height="24" viewBox="0 0 24 24" fill="none">
    <rect width="24" height="24" rx="12" fill="white" />
    <path
        d="M5.77368 17.7846C5.77368 17.6398 5.82195 17.5095 5.91848 17.3937C6.02466 17.2682 6.15981 17.2054 6.32391 17.2054C6.48801 17.2054 6.62315 17.2537 6.72934 17.3502C6.72934 17.3502 6.85 17.4612 7.09133 17.6833C8.09525 18.5617 9.49978 19.0009 11.3049 19.0009C12.5212 19.0009 13.3031 18.7499 13.6506 18.248C13.7471 18.1128 13.7954 17.9777 13.7954 17.8425C13.7954 17.6977 13.7664 17.5626 13.7085 17.4371C13.6603 17.302 13.5492 17.1427 13.3755 16.9593C13.2017 16.7662 12.9556 16.5394 12.637 16.2787L11.3628 15.2507C9.25845 13.6097 7.81531 12.2775 7.03341 11.2543C6.31908 10.3179 5.96192 9.36229 5.96192 8.38733C5.96192 7.16139 6.52662 6.13333 7.65603 5.30317C8.82406 4.43439 10.3348 4 12.1882 4C13.4913 4 14.5194 4.14962 15.2723 4.44887C16.0253 4.74811 16.5562 5.02323 16.8651 5.27421C17.174 5.51554 17.3284 5.73756 17.3284 5.94027C17.3284 6.35535 17.1643 6.5629 16.8361 6.5629C16.6817 6.5629 16.5369 6.5098 16.4017 6.40362C16.2762 6.28778 16.0204 6.09955 15.6343 5.83891C15.2482 5.56863 14.7366 5.35626 14.0995 5.20181C13.4624 5.04736 12.8687 4.97014 12.3185 4.97014C11.7683 4.97014 11.3773 5.05701 11.1456 5.23077C10.9236 5.40452 10.8126 5.57828 10.8126 5.75204C10.8126 5.91614 10.8464 6.07541 10.914 6.22986C10.9815 6.37466 11.107 6.54842 11.2904 6.75113C11.7152 7.25309 12.3957 7.84676 13.3321 8.53213C14.2684 9.2175 15.06 9.84495 15.7067 10.4145C16.3535 10.984 16.8603 11.5101 17.2271 11.9928C17.8931 12.8615 18.2262 13.74 18.2262 14.6281C18.2262 15.5161 18.0621 16.2787 17.7339 16.9158C17.4057 17.5433 16.9375 18.0839 16.3293 18.5376C15.0455 19.5125 13.3321 20 11.1891 20C9.47082 20 8.03733 19.6718 6.88861 19.0154C6.14533 18.6003 5.77368 18.19 5.77368 17.7846Z"
        fill="#121617"
    />
</svg>