<svg width="513" height="512" viewBox="0 0 513 512" fill="none" xmlns="http://www.w3.org/2000/svg">
<rect x="0.272705" width="512" height="512" rx="256" fill="white"/>
<path d="M123.446 379.405C123.446 376.316 124.476 373.536 126.535 371.065C128.8 368.388 131.683 367.049 135.184 367.049C138.685 367.049 141.568 368.079 143.833 370.138C143.833 370.138 146.408 372.506 151.556 377.243C172.973 395.983 202.936 405.353 241.445 405.353C267.393 405.353 284.074 399.998 291.487 389.29C293.546 386.407 294.576 383.524 294.576 380.641C294.576 377.552 293.958 374.669 292.723 371.992C291.693 369.108 289.325 365.711 285.618 361.798C281.911 357.679 276.66 352.84 269.864 347.28L242.681 325.348C197.788 290.339 167.001 261.921 150.32 240.092C135.081 220.116 127.462 199.729 127.462 178.93C127.462 152.776 139.509 130.844 163.603 113.134C188.521 94.6003 220.749 85.3333 260.288 85.3333C288.089 85.3333 310.021 88.5253 326.084 94.9092C342.147 101.293 353.473 107.162 360.063 112.516C366.653 117.665 369.947 122.401 369.947 126.726C369.947 135.581 366.447 140.008 359.445 140.008C356.15 140.008 353.061 138.876 350.178 136.611C347.501 134.139 342.044 130.124 333.806 124.563C325.569 118.797 314.655 114.267 301.063 110.972C287.471 107.677 274.807 106.03 263.068 106.03C251.33 106.03 242.99 107.883 238.048 111.59C233.311 115.297 230.943 119.003 230.943 122.71C230.943 126.211 231.664 129.609 233.105 132.904C234.547 135.993 237.224 139.7 241.137 144.024C250.198 154.733 264.716 167.397 284.691 182.019C304.667 196.64 321.553 210.026 335.351 222.176C349.148 234.326 359.96 245.549 367.785 255.846C381.994 274.379 389.099 293.119 389.099 312.065C389.099 331.011 385.598 347.28 378.597 360.871C371.595 374.257 361.607 385.789 348.633 395.468C321.244 416.267 284.691 426.667 238.974 426.667C202.318 426.667 171.737 419.665 147.231 405.662C131.374 396.806 123.446 388.054 123.446 379.405Z" fill="#020617"/>
</svg>
